<svg width="1291" height="945" viewBox="0 0 1291 945" fill="none" xmlns="http://www.w3.org/2000/svg">
<rect x="689" y="254" width="230" height="230" rx="115" fill="#E96700"/>
<rect x="377" y="95" width="230" height="230" rx="115" fill="#C52475"/>
<rect x="377" y="440" width="230" height="230" rx="115" fill="#0B5ED7"/>
<path d="M112.061 819.265V814.313C112.061 798.444 115.213 786.976 121.519 779.909C127.824 772.842 135.949 769.309 145.894 769.309C155.754 769.309 163.286 771.869 168.491 776.989C173.739 782.11 176.362 789.536 176.362 799.27V802.443H164.492V798.571C164.492 792.012 162.948 787.061 159.858 783.718C156.812 780.332 152.22 778.64 146.084 778.64C139.271 778.64 134.023 781.369 130.342 786.828C126.66 792.245 124.819 800.687 124.819 812.155V821.486C124.819 832.827 126.724 841.249 130.532 846.75C134.383 852.251 139.673 855.002 146.401 855.002C152.326 855.002 156.812 853.352 159.858 850.051C162.948 846.75 164.492 841.566 164.492 834.499V831.262H176.362V835.261C176.362 844.232 173.76 851.299 168.555 856.462C163.392 861.625 155.817 864.206 145.83 864.206C135.124 864.206 126.808 860.609 120.884 853.415C115.002 846.221 112.061 834.838 112.061 819.265ZM193.239 819.265V814.313C193.239 798.36 196.392 786.87 202.697 779.846C209.003 772.821 217.17 769.309 227.199 769.309C237.313 769.309 245.523 772.821 251.828 779.846C258.134 786.87 261.286 798.36 261.286 814.313V819.265C261.286 835.218 258.134 846.708 251.828 853.732C245.523 860.757 237.313 864.27 227.199 864.27C217.17 864.27 209.003 860.757 202.697 853.732C196.392 846.708 193.239 835.218 193.239 819.265ZM205.871 821.486C205.871 833.632 207.776 842.243 211.584 847.321C215.435 852.399 220.64 854.938 227.199 854.938C233.801 854.938 239.006 852.399 242.815 847.321C246.666 842.243 248.591 833.632 248.591 821.486V812.155C248.591 800.01 246.666 791.398 242.815 786.32C239.006 781.242 233.801 778.703 227.199 778.703C220.64 778.703 215.435 781.242 211.584 786.32C207.776 791.398 205.871 800.01 205.871 812.155V821.486ZM281.274 863V770.578H293.461V852.844H330.087V863H281.274ZM343.918 819.265V814.313C343.918 798.36 347.07 786.87 353.376 779.846C359.681 772.821 367.848 769.309 377.878 769.309C387.991 769.309 396.201 772.821 402.506 779.846C408.812 786.87 411.964 798.36 411.964 814.313V819.265C411.964 835.218 408.812 846.708 402.506 853.732C396.201 860.757 387.991 864.27 377.878 864.27C367.848 864.27 359.681 860.757 353.376 853.732C347.07 846.708 343.918 835.218 343.918 819.265ZM356.549 821.486C356.549 833.632 358.454 842.243 362.262 847.321C366.113 852.399 371.318 854.938 377.878 854.938C384.479 854.938 389.684 852.399 393.493 847.321C397.344 842.243 399.269 833.632 399.269 821.486V812.155C399.269 800.01 397.344 791.398 393.493 786.32C389.684 781.242 384.479 778.703 377.878 778.703C371.318 778.703 366.113 781.242 362.262 786.32C358.454 791.398 356.549 800.01 356.549 812.155V821.486ZM431.952 863V770.578H460.009C468.557 770.578 475.095 773.075 479.623 778.068C484.151 783.062 486.415 789.6 486.415 797.683C486.415 805.892 484.087 812.578 479.432 817.741C474.82 822.904 468.303 825.485 459.882 825.485H444.139V863H431.952ZM444.139 816.472H458.231C464.113 816.472 468.218 814.779 470.546 811.394C472.916 807.966 474.1 803.565 474.1 798.19C474.1 792.816 472.916 788.479 470.546 785.178C468.218 781.835 464.113 780.142 458.231 780.1H444.139V816.472ZM476.449 863L456.073 821.042L467.689 818.757L489.906 863H476.449ZM538.07 863V770.578H566.507C574.632 770.578 580.832 772.525 585.106 776.418C589.38 780.269 591.517 786.066 591.517 793.811C591.517 799.185 590.417 803.671 588.216 807.268C586.058 810.822 583.244 813.171 579.774 814.313V814.567C584.132 815.71 587.645 818.249 590.311 822.185C593.019 826.12 594.373 831.304 594.373 837.736C594.373 845.692 592.046 851.892 587.391 856.335C582.736 860.778 576.388 863 568.348 863H538.07ZM550.003 853.859H566.38C571.754 853.859 575.711 852.357 578.25 849.353C580.832 846.306 582.122 842.137 582.122 836.848C582.122 831.516 580.832 827.284 578.25 824.152C575.711 820.979 571.754 819.392 566.38 819.392H550.003V853.859ZM550.003 811.267H564.666C569.998 811.267 573.849 809.87 576.219 807.077C578.589 804.284 579.774 800.37 579.774 795.334C579.774 790.256 578.589 786.447 576.219 783.908C573.849 781.327 569.998 780.015 564.666 779.973H550.003V811.267ZM613.155 863V770.578H625.342V852.844H661.968V863H613.155ZM679.036 863V770.578H691.287V863H679.036ZM714.448 863V770.578H727.27L760.976 836.784C761.653 838.138 762.246 839.535 762.754 840.974C763.262 842.37 763.706 843.745 764.087 845.1H764.404C764.319 843.661 764.277 842.159 764.277 840.593C764.277 839.027 764.277 837.525 764.277 836.086V770.578H774.941V863H762.5L728.349 796.286C727.715 795.017 727.122 793.684 726.572 792.287C726.064 790.848 725.62 789.473 725.239 788.161H724.922C725.006 789.6 725.049 791.102 725.049 792.668C725.091 794.191 725.112 795.673 725.112 797.111V863H714.448ZM797.531 863V770.578H822.287C833.628 770.578 842.451 774.429 848.757 782.131C855.104 789.79 858.278 800.497 858.278 814.25V819.201C858.278 832.912 855.168 843.64 848.947 851.384C842.727 859.128 833.84 863 822.287 863H797.531ZM809.465 853.605H821.525C829.354 853.605 835.363 850.728 839.553 844.973C843.785 839.217 845.9 830.987 845.9 820.28V813.298C845.9 802.507 843.7 794.297 839.299 788.669C834.898 783.041 828.973 780.227 821.525 780.227H809.465V853.605ZM902.443 780.734V770.578H966.046V780.734H940.465V863H928.151V780.734H902.443ZM981.908 863V770.578H1032.5V780.734H993.778V810.886H1026.53V820.28H993.778V853.034H1033.26V863H981.908ZM1049.63 838.435V833.737H1061.18V837.8C1061.14 843.682 1062.68 848.062 1065.82 850.939C1068.95 853.775 1073.29 855.192 1078.83 855.192C1084.37 855.192 1088.6 853.796 1091.52 851.003C1094.49 848.21 1095.97 844.465 1095.97 839.768C1095.97 835.451 1094.61 832.023 1091.91 829.484C1089.24 826.945 1084.08 824.258 1076.42 821.423C1067.83 818.249 1061.46 814.715 1057.31 810.822C1053.21 806.887 1051.15 801.174 1051.15 793.684C1051.15 786.405 1053.57 780.523 1058.39 776.037C1063.26 771.551 1069.94 769.309 1078.45 769.309C1086.74 769.309 1093.39 771.467 1098.38 775.783C1103.37 780.057 1105.87 786.172 1105.87 794.128V797.619H1094.51V794.763C1094.51 789.727 1093.13 785.77 1090.38 782.893C1087.67 780.015 1083.74 778.576 1078.57 778.576C1073.07 778.576 1069.07 779.867 1066.58 782.448C1064.08 785.03 1062.83 788.521 1062.83 792.922C1062.83 797.027 1064.23 800.306 1067.02 802.761C1069.82 805.215 1075.08 807.86 1082.83 810.695C1091.33 813.742 1097.6 817.445 1101.62 821.804C1105.64 826.12 1107.65 831.833 1107.65 838.942C1107.65 846.644 1105.04 852.801 1099.84 857.414C1094.63 861.984 1087.67 864.27 1078.96 864.27C1070.2 864.27 1063.11 862.09 1057.69 857.731C1052.32 853.373 1049.63 846.94 1049.63 838.435ZM1120.46 780.734V770.578H1184.07V780.734H1158.48V863H1146.17V780.734H1120.46Z" fill="white"/>
</svg>
